<svg xmlns="http://www.w3.org/2000/svg" viewBox="0 0 299.85 484.45"><defs><style>.cls-1,.cls-4{fill:#1a1a1a;}.cls-2,.cls-7{fill:#fff;}.cls-2,.cls-4,.cls-8{stroke:#000;}.cls-3,.cls-8{fill:none;}.cls-4{stroke-width:4px;}.cls-5{fill:#4d4d4d;}.cls-6{fill:#999;}.cls-8{stroke-linecap:square;stroke-width:15px;}</style></defs><g id="Layer_2" data-name="Layer 2"><g id="svg2"><g id="layer1"><g id="g3874"><g id="g3856"><g id="g236"><path id="path238" class="cls-1" d="M299.85,455.45a29,29,0,0,1-29,29H130a29,29,0,0,1-29-29V129.09a29,29,0,0,1,29-29H270.85a29,29,0,0,1,29,29Z"/></g><g id="g240"><path id="path242" d="M292.68,449.8c0,16.35-13.68,29.6-30.56,29.6H137.2c-16.88,0-30.56-13.25-30.56-29.6V136.13c0-16.34,13.68-29.59,30.56-29.59H262.12c16.88,0,30.56,13.25,30.56,29.6V449.81Z"/></g><path id="path244" class="cls-2" d="M285.17,441.36a29,29,0,0,1-29,29h-112a29,29,0,0,1-29-29v-300a29,29,0,0,1,29-29h112a29,29,0,0,1,29,29Z"/><path id="path267" class="cls-3" d="M285.17,441.36a29,29,0,0,1-29,29h-112a29,29,0,0,1-29-29v-300a29,29,0,0,1,29-29h112a29,29,0,0,1,29,29Z"/><path id="path290" class="cls-3" d="M285.17,313.46V141.36a29,29,0,0,0-29-29h-112a29,29,0,0,0-29,29V306c43.65,16.15,107.51,29.9,170,7.46Z"/><path id="path292" class="cls-4" d="M115.17,444a29.19,29.19,0,0,0,29,29.38h112a29.19,29.19,0,0,0,29-29.38V417.15h-170Zm141-333.29h-112a29.19,29.19,0,0,0-29,29.38v17.73h170V140.08A29.19,29.19,0,0,0,256.17,110.7Z"/><g id="g3569"><path id="rect3571" d="M130.87,427.38h35.77a4.18,4.18,0,0,1,4.13,4.23v14.72a4.18,4.18,0,0,1-4.13,4.22H130.87a4.18,4.18,0,0,1-4.13-4.22V431.61A4.18,4.18,0,0,1,130.87,427.38Z"/><path id="path3573" class="cls-5" d="M170.77,439.25a63.12,63.12,0,0,1-21.44,3.26,87.88,87.88,0,0,1-22.59-3.26v7.37a4.17,4.17,0,0,0,4.13,4.22h35.77a4.17,4.17,0,0,0,4.13-4.22v-7.37Z"/><rect id="rect3575" class="cls-6" x="130.19" y="431.21" width="37.14" height="16.46" rx="2"/></g><g id="g3577"><path id="rect3579" d="M232.83,427.38H268.6a4.18,4.18,0,0,1,4.13,4.23v14.72a4.18,4.18,0,0,1-4.13,4.22H232.83a4.18,4.18,0,0,1-4.13-4.22V431.61A4.18,4.18,0,0,1,232.83,427.38Z"/><path id="path3581" class="cls-5" d="M272.73,439.25a63.12,63.12,0,0,1-21.44,3.26,87.88,87.88,0,0,1-22.59-3.26v7.37a4.17,4.17,0,0,0,4.13,4.22H268.6a4.17,4.17,0,0,0,4.13-4.22v-7.37Z"/><rect id="rect3583" class="cls-6" x="232.15" y="431.21" width="37.14" height="16.46" rx="2"/></g></g><g id="g3638"><rect id="rect3529" x="140.93" y="232.79" width="118.96" height="118.96"/><rect id="rect3585" class="cls-7" x="155.8" y="247.66" width="89.22" height="89.22"/><g id="g3623"><rect id="rect3589" x="164.61" y="257.5" width="14.28" height="14.28"/><rect id="rect3599" x="178.61" y="271.5" width="14.28" height="14.28"/><rect id="rect3601" x="192.61" y="285.5" width="14.28" height="14.28"/><rect id="rect3603" x="206.61" y="299.5" width="14.28" height="14.28"/><rect id="rect3605" x="206.61" y="271.5" width="14.28" height="14.28"/><rect id="rect3607" x="220.61" y="285.5" width="14.28" height="14.28"/><rect id="rect3609" x="220.61" y="257.5" width="14.28" height="14.28"/><rect id="rect3611" x="220.61" y="313.5" width="14.28" height="14.28"/><rect id="rect3613" x="192.61" y="313.5" width="14.28" height="14.28"/><rect id="rect3615" x="164.61" y="313.5" width="14.28" height="14.28"/><rect id="rect3617" x="178.61" y="299.5" width="14.28" height="14.28"/><rect id="rect3619" x="164.61" y="285.5" width="14.28" height="14.28"/><rect id="rect3621" x="192.61" y="257.5" width="14.28" height="14.28"/></g></g></g><g id="g4787"><path id="path4769" class="cls-8" d="M43.66,116A72.32,72.32,0,0,1,116,43.66"/><path id="path4771" class="cls-8" d="M79.82,116A36.16,36.16,0,0,1,116,79.82"/><path id="path4775" class="cls-8" d="M7.5,116A108.48,108.48,0,0,1,116,7.5"/></g></g></g></g></svg>