<svg xmlns="http://www.w3.org/2000/svg" viewBox="0 0 377.36 283.16"><defs><style>.cls-1{fill:#da2354;}.cls-2{fill:#010101;}.cls-3{fill:#ef4977;}.cls-4{fill:#eeedee;}.cls-5{fill:#f387a6;}.cls-6{fill:#ffe7c0;}.cls-6,.cls-7{stroke:#010101;stroke-width:2px;}.cls-7{fill:none;}</style></defs><g id="Layer_2" data-name="Layer 2"><g id="Layer_2-2" data-name="Layer 2"><g id="layer1"><g id="g4260"><g id="g4262"><g id="g4264"><g id="g4266"><path id="path4268" class="cls-1" d="M5.51,109.85V266.91H245V109.85Z"/></g><path id="path4270" class="cls-2" d="M33.19,99.9c-23.39,0-29.41-.48-29.41,1.9v11.52h242.4V101.8c0-2.86-6.33-1.9-29.42-1.9H33.19Z"/><path id="path4272" class="cls-3" d="M30.41,56.55C6.22,56.55,0,54.6,0,64.13v46H250.56v-46c0-11.45-6.55-7.58-30.41-7.58Z"/></g><g id="g4274"><path id="path4276" class="cls-4" d="M103.38,56.54v53.62h43.9V56.54Zm4.41,56.51V266.91h35.14v-154Z"/></g></g><path id="path4278" class="cls-5" d="M63.64,0c-.31,0-.59,0-.89,0A12.58,12.58,0,0,0,58.57,1,21,21,0,0,0,47.66,12a44.36,44.36,0,0,0,0,32.4c2,4.79,4.86,11,10.91,11H98.18a10.94,10.94,0,0,0,10.93-11s1.75-15.32-2-21.34C99.35,10.85,83.85,4.77,70,1A24.52,24.52,0,0,0,63.64,0Zm122.7,0a24.39,24.39,0,0,0-5.8.92c-13.84,3.82-29.35,9.9-37.06,22.11-3.8,6-2,21.34-2,21.34a10.94,10.94,0,0,0,10.94,11H192c6.05,0,8.93-6.21,10.9-11a44.26,44.26,0,0,0,0-32.4A21.06,21.06,0,0,0,192,1,13.4,13.4,0,0,0,186.34,0ZM74.21,15.56a17.49,17.49,0,0,1,4.34.62c9.5,2.51,20.16,6.49,25.45,14.51,2.62,3.95,1.4,14,1.4,14a7.34,7.34,0,0,1-7.49,7.22H70.73c-4.16,0-6.14-4.08-7.49-7.22a27.84,27.84,0,0,1,0-21.27,14.13,14.13,0,0,1,7.49-7.25,8.78,8.78,0,0,1,2.85-.59l.63,0Zm102.12,0,.63,0a8.89,8.89,0,0,1,2.85.59,14.14,14.14,0,0,1,7.49,7.26,27.91,27.91,0,0,1,0,21.26c-1.35,3.14-3.34,7.22-7.49,7.22H152.63a7.34,7.34,0,0,1-7.49-7.22s-1.22-10.06,1.39-14c5.29-8,15.92-12,25.42-14.5a17.29,17.29,0,0,1,4.38-.63Zm-65,9.8c3.81,5.6,2.09,19.83,2.09,19.83a9.86,9.86,0,0,1-3.55,7.57,7.66,7.66,0,0,0,5.87,2.64h19a7.73,7.73,0,0,0,5.93-2.64,9.92,9.92,0,0,1-3.58-7.57S135.33,31,139.14,25.36C134,17.27,117.05,17,111.36,25.36Z"/></g></g></g><g id="Layer_1-2" data-name="Layer 1"><g id="layer1-2" data-name="layer1"><g id="g4037"><path id="path3194" class="cls-6" d="M376.71,238.87s-16-13.9-18.22-16.91c-3.75-5-4.05-17.75-15.27-37.08-4.49-7.73-15.38-22.8-23.58-24.4s-13.8.17-17.32-1.57-4.67-3.68-10-4.32-5.94,1.76-11.28,3.4c-4.73,1.46-9.42-4.58-15.77-3.66s-14,8.07-14,8.07c-8.12-5.41-17-11.07-24.21-16.83-14.1-4-20.84-4.41-29.16-7.21-12.63-.55-21.39-1.82-23.45.94C171.7,143,177,149,183.26,150.94c7.15,2.25,8.91,3.73,17.9,8.58a37.22,37.22,0,0,0,14.17,3.89s9.59,11.11,16.45,18.92c4.62,5.26,2.11,3.08,9.23,14,3.56,5.46,5,7.17,5.54,9.87a28,28,0,0,1,.34,6.36,90.81,90.81,0,0,1-7.19-5.62c-3.43-5.18-8.53-9.92-12.53-11.6-8.36-3.52-12.3-2.39-16.26,2.17-4.87,5.6-4.17,7,2.34,15.17s4.07,8.77,12.46,16.2c9.15,8.1,9.33,6.62,13.3,11.07s9.76,11.64,16.51,14,16.87,3.44,21.45,3.87c9.39.89,20.44-.72,29.93-1.93,15,11.45,32.37,26.56,32.37,26.56"/><path id="path3964" class="cls-7" d="M213,211.57c2.72-.7.86-3.07,2.71-6s5.27-3.79,5.16-5.26-5.38-6.63-5.38-6.63"/><path id="path3968" class="cls-7" d="M229.57,210.32c-6,5.85-6,9.25-5.74,12.57"/><path id="path3968-1" class="cls-7" d="M231,211.4c-6,5.85-6,9.25-5.75,12.57"/><path id="path3990" class="cls-7" d="M193.89,138.31c-5.19,3.56-4.52,4.58-5,6"/><path id="path3990-1" class="cls-7" d="M195.93,138.4c-5.19,3.57-4.52,4.59-5,6"/><path id="path3990-9" class="cls-7" d="M222.82,144.33c-4.41,2.31-6.23,5.75-7.36,7.11"/><path id="path3990-9-7" class="cls-7" d="M224.6,144.81c-4.58,2.88-7.32,5.64-7.11,6.73"/><path id="path4035" class="cls-7" d="M182.8,137.6c-2.3,1.15-2.5,3.44-4.22,4.06a7.8,7.8,0,0,1-5.09.28"/></g></g></g></g></svg>