<?xml version="1.0" encoding="UTF-8" standalone="no"?>
<!-- Created with Inkscape (http://www.inkscape.org/) -->

<svg
   xmlns:dc="http://purl.org/dc/elements/1.1/"
   xmlns:cc="http://creativecommons.org/ns#"
   xmlns:rdf="http://www.w3.org/1999/02/22-rdf-syntax-ns#"
   xmlns:svg="http://www.w3.org/2000/svg"
   xmlns="http://www.w3.org/2000/svg"
   xmlns:sodipodi="http://sodipodi.sourceforge.net/DTD/sodipodi-0.dtd"
   xmlns:inkscape="http://www.inkscape.org/namespaces/inkscape"
   version="1.1"
   id="svg1073"
   xml:space="preserve"
   width="880"
   height="880"
   viewBox="0 0 880 880"
   sodipodi:docname="pirate-flag-silhouette-freesvg.org.svg"
   inkscape:version="0.92.4 (5da689c313, 2019-01-14)"><metadata
     id="metadata1079"><rdf:RDF><cc:Work
         rdf:about=""><dc:format>image/svg+xml</dc:format><dc:type
           rdf:resource="http://purl.org/dc/dcmitype/StillImage" /><dc:title></dc:title></cc:Work></rdf:RDF></metadata><defs
     id="defs1077"><clipPath
       clipPathUnits="userSpaceOnUse"
       id="clipPath1089"><path
         d="M 0,660 H 660 V 0 H 0 Z"
         id="path1087"
         inkscape:connector-curvature="0" /></clipPath></defs><sodipodi:namedview
     pagecolor="#ffffff"
     bordercolor="#666666"
     borderopacity="1"
     objecttolerance="10"
     gridtolerance="10"
     guidetolerance="10"
     inkscape:pageopacity="0"
     inkscape:pageshadow="2"
     inkscape:window-width="1920"
     inkscape:window-height="1018"
     id="namedview1075"
     showgrid="false"
     inkscape:zoom="0.67164119"
     inkscape:cx="525.76271"
     inkscape:cy="412.0339"
     inkscape:window-x="-8"
     inkscape:window-y="-8"
     inkscape:window-maximized="1"
     inkscape:current-layer="g1081" /><g
     id="g1081"
     inkscape:groupmode="layer"
     inkscape:label="pirate-flag-silhouette-freesvg.org"
     transform="matrix(1.3333333,0,0,-1.3333333,0,880)"><g
       id="g1869"><path
         inkscape:connector-curvature="0"
         id="path1091"
         style="fill:#231f20;fill-opacity:1;fill-rule:nonzero;stroke:none"
         d="m 31.141,-25.146 h 3.677 c 1.135,0 2.026,0.106 2.672,0.318 0.646,0.212 1.161,0.51 1.545,0.893 0.54,0.541 0.961,1.269 1.262,2.182 0.302,0.914 0.453,2.022 0.453,3.322 0,1.804 -0.295,3.19 -0.887,4.159 -0.591,0.967 -1.31,1.617 -2.155,1.946 -0.612,0.235 -1.594,0.352 -2.949,0.352 h -3.618 z m -2.282,-2.031 v 17.235 h 5.932 c 1.338,0 2.36,-0.082 3.065,-0.247 0.986,-0.228 1.828,-0.639 2.525,-1.235 0.908,-0.767 1.587,-1.749 2.037,-2.944 0.451,-1.195 0.676,-2.562 0.676,-4.098 0,-1.308 -0.153,-2.469 -0.458,-3.479 -0.305,-1.011 -0.697,-1.848 -1.175,-2.51 -0.477,-0.663 -1,-1.184 -1.568,-1.564 -0.567,-0.38 -1.252,-0.668 -2.055,-0.864 -0.802,-0.196 -1.724,-0.294 -2.766,-0.294 z" /><path
         inkscape:connector-curvature="0"
         id="path1093"
         style="fill:#231f20;fill-opacity:1;fill-rule:nonzero;stroke:none"
         d="m 47.546,-19.739 h 6.969 c -0.094,1.052 -0.36,1.842 -0.799,2.368 -0.674,0.817 -1.548,1.225 -2.621,1.225 -0.971,0 -1.788,-0.326 -2.45,-0.978 -0.662,-0.651 -1.028,-1.523 -1.099,-2.615 m 6.946,-3.407 2.187,-0.281 c -0.345,-1.277 -0.983,-2.268 -1.915,-2.973 -0.931,-0.705 -2.122,-1.058 -3.571,-1.058 -1.824,0 -3.272,0.562 -4.34,1.687 -1.069,1.124 -1.603,2.701 -1.603,4.731 0,2.1 0.54,3.729 1.621,4.889 1.08,1.16 2.482,1.74 4.205,1.74 1.668,0 3.03,-0.568 4.088,-1.704 1.057,-1.136 1.586,-2.735 1.586,-4.794 0,-0.126 -0.004,-0.315 -0.012,-0.565 h -9.317 c 0.079,-1.373 0.467,-2.425 1.165,-3.155 0.698,-0.729 1.569,-1.095 2.612,-1.095 0.776,0 1.439,0.205 1.988,0.616 0.549,0.41 0.984,1.064 1.306,1.962" /><path
         inkscape:connector-curvature="0"
         id="path1095"
         style="fill:#231f20;fill-opacity:1;fill-rule:nonzero;stroke:none"
         d="m 58.489,-23.442 2.094,0.328 c 0.118,-0.842 0.445,-1.489 0.983,-1.937 0.538,-0.448 1.289,-0.673 2.254,-0.673 0.973,0 1.695,0.199 2.166,0.595 0.471,0.397 0.706,0.861 0.706,1.396 0,0.479 -0.207,0.855 -0.62,1.13 -0.289,0.189 -1.01,0.428 -2.163,0.719 -1.554,0.392 -2.631,0.731 -3.231,1.016 -0.6,0.286 -1.055,0.681 -1.365,1.187 -0.31,0.505 -0.464,1.063 -0.464,1.674 0,0.557 0.127,1.071 0.382,1.545 0.254,0.475 0.602,0.868 1.04,1.182 0.329,0.242 0.778,0.448 1.347,0.616 0.568,0.169 1.177,0.253 1.828,0.253 0.979,0 1.84,-0.141 2.58,-0.423 0.741,-0.282 1.288,-0.664 1.641,-1.145 0.352,-0.482 0.595,-1.125 0.729,-1.932 l -2.063,-0.281 c -0.094,0.642 -0.367,1.144 -0.818,1.505 -0.451,0.361 -1.089,0.541 -1.912,0.541 -0.974,0 -1.668,-0.161 -2.084,-0.483 -0.416,-0.321 -0.623,-0.698 -0.623,-1.13 0,-0.275 0.086,-0.523 0.259,-0.742 0.172,-0.228 0.443,-0.417 0.811,-0.566 0.212,-0.079 0.836,-0.259 1.872,-0.541 1.498,-0.401 2.543,-0.728 3.133,-0.982 0.59,-0.255 1.053,-0.625 1.389,-1.11 0.336,-0.487 0.504,-1.089 0.504,-1.81 0,-0.705 -0.206,-1.369 -0.617,-1.992 -0.412,-0.622 -1.006,-1.104 -1.783,-1.445 -0.776,-0.341 -1.654,-0.511 -2.634,-0.511 -1.623,0 -2.861,0.338 -3.711,1.013 -0.852,0.674 -1.395,1.675 -1.63,3.003" /><path
         inkscape:connector-curvature="0"
         id="path1097"
         style="fill:#231f20;fill-opacity:1;fill-rule:nonzero;stroke:none"
         d="m 71.378,-14.692 h 2.109 v -12.484 h -2.109 z m 0,4.75 h 2.109 v -2.438 h -2.109 z" /><path
         inkscape:connector-curvature="0"
         id="path1099"
         style="fill:#231f20;fill-opacity:1;fill-rule:nonzero;stroke:none"
         d="m 78.078,-20.712 c 0,-1.639 0.325,-2.834 0.974,-3.586 0.65,-0.753 1.464,-1.129 2.442,-1.129 0.97,0 1.784,0.374 2.442,1.123 0.657,0.748 0.985,1.922 0.985,3.522 0,1.528 -0.338,2.68 -1.015,3.457 -0.677,0.775 -1.492,1.164 -2.448,1.164 -0.938,0 -1.737,-0.383 -2.394,-1.147 -0.657,-0.764 -0.986,-1.899 -0.986,-3.404 m -1.75,-7.496 2.062,-0.313 c 0.086,-0.632 0.325,-1.093 0.716,-1.382 0.524,-0.391 1.24,-0.586 2.147,-0.586 0.978,0 1.733,0.196 2.265,0.588 0.531,0.392 0.892,0.941 1.079,1.647 0.11,0.432 0.16,1.337 0.153,2.718 -0.924,-1.094 -2.075,-1.641 -3.453,-1.641 -1.715,0 -3.043,0.619 -3.982,1.858 -0.94,1.238 -1.409,2.722 -1.409,4.455 0,1.191 0.216,2.29 0.646,3.297 0.431,1.006 1.056,1.785 1.874,2.333 0.819,0.548 1.78,0.823 2.885,0.823 1.472,0 2.687,-0.594 3.642,-1.781 v 1.5 h 1.953 v -10.789 c 0,-1.944 -0.198,-3.321 -0.593,-4.131 -0.396,-0.811 -1.023,-1.451 -1.881,-1.922 -0.858,-0.47 -1.914,-0.705 -3.168,-0.705 -1.488,0 -2.691,0.335 -3.608,1.005 -0.917,0.67 -1.36,1.678 -1.328,3.026" /><path
         inkscape:connector-curvature="0"
         id="path1101"
         style="fill:#231f20;fill-opacity:1;fill-rule:nonzero;stroke:none"
         d="m 90.104,-27.177 v 12.485 h 1.89 v -1.775 c 0.916,1.37 2.24,2.056 3.97,2.056 0.752,0 1.444,-0.135 2.074,-0.405 0.63,-0.271 1.102,-0.625 1.415,-1.065 0.313,-0.438 0.533,-0.96 0.658,-1.563 0.078,-0.392 0.118,-1.077 0.118,-2.057 v -7.676 h -2.11 v 7.598 c 0,0.862 -0.082,1.507 -0.246,1.934 -0.165,0.427 -0.456,0.769 -0.875,1.023 -0.419,0.256 -0.911,0.383 -1.474,0.383 -0.9,0 -1.677,-0.286 -2.331,-0.859 -0.653,-0.572 -0.98,-1.658 -0.98,-3.257 v -6.822 z" /><path
         inkscape:connector-curvature="0"
         id="path1103"
         style="fill:#231f20;fill-opacity:1;fill-rule:nonzero;stroke:none"
         d="m 105.062,-19.739 h 6.969 c -0.094,1.052 -0.361,1.842 -0.799,2.368 -0.674,0.817 -1.548,1.225 -2.621,1.225 -0.972,0 -1.788,-0.326 -2.45,-0.978 -0.662,-0.651 -1.029,-1.523 -1.099,-2.615 m 6.945,-3.407 2.188,-0.281 c -0.345,-1.277 -0.984,-2.268 -1.915,-2.973 -0.932,-0.705 -2.122,-1.058 -3.571,-1.058 -1.825,0 -3.272,0.562 -4.34,1.687 -1.07,1.124 -1.604,2.701 -1.604,4.731 0,2.1 0.54,3.729 1.621,4.889 1.081,1.16 2.483,1.74 4.205,1.74 1.668,0 3.031,-0.568 4.088,-1.704 1.057,-1.136 1.586,-2.735 1.586,-4.794 0,-0.126 -0.004,-0.315 -0.012,-0.565 h -9.316 c 0.078,-1.373 0.467,-2.425 1.165,-3.155 0.697,-0.729 1.568,-1.095 2.611,-1.095 0.777,0 1.439,0.205 1.989,0.616 0.548,0.41 0.984,1.064 1.305,1.962" /><path
         inkscape:connector-curvature="0"
         id="path1105"
         style="fill:#231f20;fill-opacity:1;fill-rule:nonzero;stroke:none"
         d="m 118.255,-20.948 c 0,-1.6 0.337,-2.795 1.01,-3.588 0.674,-0.791 1.469,-1.188 2.385,-1.188 0.924,0 1.709,0.378 2.355,1.135 0.646,0.757 0.969,1.911 0.969,3.464 0,1.71 -0.329,2.964 -0.987,3.765 -0.657,0.798 -1.468,1.199 -2.431,1.199 -0.94,0 -1.724,-0.385 -2.355,-1.152 -0.63,-0.77 -0.946,-1.981 -0.946,-3.635 m 6.688,-6.229 v 1.571 c -0.791,-1.235 -1.955,-1.852 -3.49,-1.852 -0.995,0 -1.91,0.274 -2.744,0.822 -0.834,0.549 -1.48,1.315 -1.938,2.299 -0.458,0.983 -0.688,2.113 -0.688,3.391 0,1.246 0.208,2.376 0.624,3.39 0.415,1.015 1.037,1.793 1.868,2.334 0.83,0.54 1.758,0.811 2.784,0.811 0.752,0 1.422,-0.158 2.01,-0.476 0.587,-0.317 1.065,-0.73 1.433,-1.239 v 6.184 h 2.11 v -17.235 z" /><path
         inkscape:connector-curvature="0"
         id="path1107"
         style="fill:#231f20;fill-opacity:1;fill-rule:nonzero;stroke:none"
         d="m 144.882,-20.911 c -0.767,-0.314 -1.918,-0.58 -3.451,-0.799 -0.869,-0.126 -1.484,-0.268 -1.844,-0.424 -0.36,-0.156 -0.637,-0.386 -0.833,-0.687 -0.196,-0.302 -0.294,-0.637 -0.294,-1.006 0,-0.565 0.213,-1.034 0.639,-1.41 0.426,-0.377 1.049,-0.565 1.869,-0.565 0.813,0 1.535,0.178 2.168,0.535 0.633,0.357 1.098,0.844 1.395,1.463 0.226,0.479 0.34,1.184 0.34,2.117 z m 0.172,-4.719 c -0.786,-0.668 -1.541,-1.141 -2.263,-1.415 -0.723,-0.275 -1.499,-0.413 -2.327,-0.413 -1.367,0 -2.418,0.335 -3.152,1.005 -0.734,0.67 -1.102,1.526 -1.102,2.567 0,0.612 0.139,1.17 0.416,1.675 0.278,0.506 0.641,0.911 1.09,1.217 0.45,0.306 0.955,0.536 1.518,0.693 0.414,0.11 1.039,0.216 1.875,0.318 1.703,0.203 2.957,0.446 3.762,0.728 0.007,0.29 0.011,0.475 0.011,0.553 0,0.863 -0.199,1.471 -0.598,1.823 -0.539,0.479 -1.341,0.718 -2.404,0.718 -0.992,0 -1.725,-0.175 -2.198,-0.524 -0.474,-0.348 -0.823,-0.965 -1.05,-1.851 l -2.062,0.281 c 0.188,0.886 0.497,1.601 0.928,2.146 0.43,0.544 1.052,0.963 1.867,1.256 0.814,0.295 1.758,0.442 2.831,0.442 1.064,0 1.929,-0.125 2.596,-0.376 0.665,-0.251 1.154,-0.567 1.467,-0.946 0.314,-0.38 0.533,-0.861 0.658,-1.44 0.071,-0.361 0.106,-1.012 0.106,-1.951 v -2.822 c 0,-1.967 0.045,-3.211 0.136,-3.733 0.09,-0.52 0.268,-1.019 0.536,-1.498 h -2.203 c -0.227,0.442 -0.373,0.957 -0.438,1.547" /><path
         inkscape:connector-curvature="0"
         id="path1109"
         style="fill:#231f20;fill-opacity:1;fill-rule:nonzero;stroke:none"
         d="m 150.31,-27.177 v 12.485 h 1.89 v -1.775 c 0.916,1.37 2.24,2.056 3.97,2.056 0.752,0 1.444,-0.135 2.074,-0.405 0.631,-0.271 1.102,-0.625 1.415,-1.065 0.313,-0.438 0.533,-0.96 0.658,-1.563 0.078,-0.392 0.118,-1.077 0.118,-2.057 v -7.676 h -2.11 v 7.598 c 0,0.862 -0.082,1.507 -0.246,1.934 -0.165,0.427 -0.456,0.769 -0.875,1.023 -0.419,0.256 -0.911,0.383 -1.474,0.383 -0.9,0 -1.677,-0.286 -2.331,-0.859 -0.653,-0.572 -0.98,-1.658 -0.98,-3.257 v -6.822 z" /><path
         inkscape:connector-curvature="0"
         id="path1111"
         style="fill:#231f20;fill-opacity:1;fill-rule:nonzero;stroke:none"
         d="m 165.081,-20.948 c 0,-1.6 0.336,-2.795 1.009,-3.588 0.674,-0.791 1.469,-1.188 2.385,-1.188 0.924,0 1.709,0.378 2.356,1.135 0.645,0.757 0.968,1.911 0.968,3.464 0,1.71 -0.329,2.964 -0.986,3.765 -0.658,0.798 -1.469,1.199 -2.432,1.199 -0.94,0 -1.724,-0.385 -2.355,-1.152 -0.63,-0.77 -0.945,-1.981 -0.945,-3.635 m 6.687,-6.229 v 1.571 c -0.791,-1.235 -1.955,-1.852 -3.49,-1.852 -0.994,0 -1.909,0.274 -2.743,0.822 -0.834,0.549 -1.481,1.315 -1.939,2.299 -0.458,0.983 -0.687,2.113 -0.687,3.391 0,1.246 0.207,2.376 0.623,3.39 0.415,1.015 1.037,1.793 1.868,2.334 0.83,0.54 1.758,0.811 2.785,0.811 0.752,0 1.421,-0.158 2.009,-0.476 0.587,-0.317 1.065,-0.73 1.433,-1.239 v 6.184 h 2.11 v -17.235 z" /><path
         inkscape:connector-curvature="0"
         id="path1113"
         style="fill:#231f20;fill-opacity:1;fill-rule:nonzero;stroke:none"
         d="m 183.724,-27.177 v 12.485 h 1.89 v -1.895 c 0.487,0.886 0.937,1.471 1.349,1.752 0.413,0.283 0.867,0.424 1.362,0.424 0.715,0 1.441,-0.228 2.18,-0.682 l -0.74,-1.957 c -0.516,0.301 -1.033,0.451 -1.549,0.451 -0.461,0 -0.876,-0.138 -1.243,-0.417 -0.368,-0.278 -0.63,-0.664 -0.787,-1.158 -0.235,-0.752 -0.353,-1.575 -0.353,-2.468 v -6.535 z" /><path
         inkscape:connector-curvature="0"
         id="path1115"
         style="fill:#231f20;fill-opacity:1;fill-rule:nonzero;stroke:none"
         d="m 193.345,-19.739 h 6.968 c -0.094,1.052 -0.36,1.842 -0.799,2.368 -0.674,0.817 -1.547,1.225 -2.62,1.225 -0.972,0 -1.789,-0.326 -2.451,-0.978 -0.662,-0.651 -1.028,-1.523 -1.098,-2.615 m 6.945,-3.407 2.187,-0.281 c -0.345,-1.277 -0.982,-2.268 -1.914,-2.973 -0.933,-0.705 -2.123,-1.058 -3.571,-1.058 -1.825,0 -3.272,0.562 -4.341,1.687 -1.068,1.124 -1.603,2.701 -1.603,4.731 0,2.1 0.54,3.729 1.621,4.889 1.081,1.16 2.482,1.74 4.206,1.74 1.667,0 3.03,-0.568 4.087,-1.704 1.057,-1.136 1.586,-2.735 1.586,-4.794 0,-0.126 -0.004,-0.315 -0.012,-0.565 h -9.316 c 0.078,-1.373 0.466,-2.425 1.164,-3.155 0.699,-0.729 1.569,-1.095 2.612,-1.095 0.776,0 1.439,0.205 1.988,0.616 0.549,0.41 0.984,1.064 1.306,1.962" /><path
         inkscape:connector-curvature="0"
         id="path1117"
         style="fill:#231f20;fill-opacity:1;fill-rule:nonzero;stroke:none"
         d="m 205.1,-9.942 h 2.109 V -27.176 H 205.1 Z" /><path
         inkscape:connector-curvature="0"
         id="path1119"
         style="fill:#231f20;fill-opacity:1;fill-rule:nonzero;stroke:none"
         d="m 212.07,-19.739 h 6.969 c -0.094,1.052 -0.361,1.842 -0.799,2.368 -0.674,0.817 -1.547,1.225 -2.62,1.225 -0.972,0 -1.789,-0.326 -2.451,-0.978 -0.662,-0.651 -1.028,-1.523 -1.099,-2.615 m 6.946,-3.407 2.187,-0.281 c -0.345,-1.277 -0.983,-2.268 -1.915,-2.973 -0.932,-0.705 -2.122,-1.058 -3.571,-1.058 -1.824,0 -3.271,0.562 -4.341,1.687 -1.068,1.124 -1.603,2.701 -1.603,4.731 0,2.1 0.541,3.729 1.622,4.889 1.08,1.16 2.482,1.74 4.205,1.74 1.668,0 3.03,-0.568 4.088,-1.704 1.057,-1.136 1.585,-2.735 1.585,-4.794 0,-0.126 -0.003,-0.315 -0.011,-0.565 h -9.317 c 0.079,-1.373 0.467,-2.425 1.165,-3.155 0.698,-0.729 1.568,-1.095 2.612,-1.095 0.776,0 1.439,0.205 1.987,0.616 0.549,0.41 0.985,1.064 1.307,1.962" /><path
         inkscape:connector-curvature="0"
         id="path1121"
         style="fill:#231f20;fill-opacity:1;fill-rule:nonzero;stroke:none"
         d="m 231.826,-20.911 c -0.767,-0.314 -1.918,-0.58 -3.452,-0.799 -0.869,-0.126 -1.483,-0.268 -1.843,-0.424 -0.361,-0.156 -0.638,-0.386 -0.834,-0.687 -0.196,-0.302 -0.293,-0.637 -0.293,-1.006 0,-0.565 0.213,-1.034 0.638,-1.41 0.426,-0.377 1.049,-0.565 1.87,-0.565 0.812,0 1.535,0.178 2.168,0.535 0.632,0.357 1.097,0.844 1.394,1.463 0.227,0.479 0.34,1.184 0.34,2.117 z m 0.172,-4.719 c -0.787,-0.668 -1.541,-1.141 -2.264,-1.415 -0.723,-0.275 -1.498,-0.413 -2.326,-0.413 -1.367,0 -2.418,0.335 -3.153,1.005 -0.734,0.67 -1.101,1.526 -1.101,2.567 0,0.612 0.138,1.17 0.416,1.675 0.277,0.506 0.64,0.911 1.09,1.217 0.449,0.306 0.955,0.536 1.517,0.693 0.414,0.11 1.039,0.216 1.875,0.318 1.703,0.203 2.957,0.446 3.762,0.728 0.008,0.29 0.012,0.475 0.012,0.553 0,0.863 -0.2,1.471 -0.598,1.823 -0.54,0.479 -1.341,0.718 -2.404,0.718 -0.993,0 -1.726,-0.175 -2.199,-0.524 -0.473,-0.348 -0.823,-0.965 -1.049,-1.851 l -2.063,0.281 c 0.188,0.886 0.497,1.601 0.928,2.146 0.431,0.544 1.053,0.963 1.867,1.256 0.815,0.295 1.758,0.442 2.831,0.442 1.065,0 1.93,-0.125 2.596,-0.376 0.665,-0.251 1.155,-0.567 1.468,-0.946 0.313,-0.38 0.532,-0.861 0.658,-1.44 0.07,-0.361 0.105,-1.012 0.105,-1.951 v -2.822 c 0,-1.967 0.045,-3.211 0.136,-3.733 0.09,-0.52 0.269,-1.019 0.536,-1.498 h -2.203 c -0.227,0.442 -0.373,0.957 -0.437,1.547" /><path
         inkscape:connector-curvature="0"
         id="path1123"
         style="fill:#231f20;fill-opacity:1;fill-rule:nonzero;stroke:none"
         d="m 236.394,-23.442 2.093,0.328 c 0.118,-0.842 0.446,-1.489 0.983,-1.937 0.538,-0.448 1.289,-0.673 2.254,-0.673 0.974,0 1.695,0.199 2.166,0.595 0.471,0.397 0.707,0.861 0.707,1.396 0,0.479 -0.207,0.855 -0.621,1.13 -0.289,0.189 -1.01,0.428 -2.163,0.719 -1.554,0.392 -2.631,0.731 -3.23,1.016 -0.601,0.286 -1.056,0.681 -1.366,1.187 -0.309,0.505 -0.464,1.063 -0.464,1.674 0,0.557 0.127,1.071 0.382,1.545 0.255,0.475 0.602,0.868 1.04,1.182 0.329,0.242 0.779,0.448 1.347,0.616 0.568,0.169 1.178,0.253 1.828,0.253 0.98,0 1.84,-0.141 2.581,-0.423 0.74,-0.282 1.287,-0.664 1.64,-1.145 0.352,-0.482 0.596,-1.125 0.729,-1.932 l -2.063,-0.281 c -0.094,0.642 -0.366,1.144 -0.818,1.505 -0.451,0.361 -1.088,0.541 -1.912,0.541 -0.973,0 -1.668,-0.161 -2.084,-0.483 -0.416,-0.321 -0.623,-0.698 -0.623,-1.13 0,-0.275 0.086,-0.523 0.259,-0.742 0.172,-0.228 0.443,-0.417 0.812,-0.566 0.212,-0.079 0.836,-0.259 1.871,-0.541 1.499,-0.401 2.543,-0.728 3.133,-0.982 0.59,-0.255 1.053,-0.625 1.389,-1.11 0.336,-0.487 0.505,-1.089 0.505,-1.81 0,-0.705 -0.206,-1.369 -0.618,-1.992 -0.412,-0.622 -1.006,-1.104 -1.782,-1.445 -0.777,-0.341 -1.655,-0.511 -2.635,-0.511 -1.623,0 -2.86,0.338 -3.711,1.013 -0.852,0.674 -1.395,1.675 -1.629,3.003" /><path
         inkscape:connector-curvature="0"
         id="path1125"
         style="fill:#231f20;fill-opacity:1;fill-rule:nonzero;stroke:none"
         d="m 250.861,-19.739 h 6.969 c -0.094,1.052 -0.361,1.842 -0.799,2.368 -0.674,0.817 -1.548,1.225 -2.621,1.225 -0.972,0 -1.788,-0.326 -2.451,-0.978 -0.662,-0.651 -1.028,-1.523 -1.098,-2.615 m 6.945,-3.407 2.188,-0.281 c -0.345,-1.277 -0.984,-2.268 -1.915,-2.973 -0.932,-0.705 -2.122,-1.058 -3.572,-1.058 -1.824,0 -3.271,0.562 -4.34,1.687 -1.069,1.124 -1.603,2.701 -1.603,4.731 0,2.1 0.54,3.729 1.621,4.889 1.08,1.16 2.482,1.74 4.205,1.74 1.668,0 3.031,-0.568 4.088,-1.704 1.057,-1.136 1.586,-2.735 1.586,-4.794 0,-0.126 -0.004,-0.315 -0.012,-0.565 h -9.316 c 0.078,-1.373 0.467,-2.425 1.164,-3.155 0.698,-0.729 1.569,-1.095 2.612,-1.095 0.777,0 1.439,0.205 1.988,0.616 0.549,0.41 0.984,1.064 1.306,1.962" /><path
         inkscape:connector-curvature="0"
         id="path1127"
         style="fill:#231f20;fill-opacity:1;fill-rule:nonzero;stroke:none"
         d="m 264.053,-20.948 c 0,-1.6 0.337,-2.795 1.01,-3.588 0.674,-0.791 1.469,-1.188 2.385,-1.188 0.924,0 1.709,0.378 2.355,1.135 0.646,0.757 0.969,1.911 0.969,3.464 0,1.71 -0.329,2.964 -0.987,3.765 -0.658,0.798 -1.468,1.199 -2.431,1.199 -0.94,0 -1.725,-0.385 -2.355,-1.152 -0.63,-0.77 -0.946,-1.981 -0.946,-3.635 m 6.688,-6.229 v 1.571 c -0.791,-1.235 -1.954,-1.852 -3.49,-1.852 -0.995,0 -1.91,0.274 -2.744,0.822 -0.834,0.549 -1.48,1.315 -1.938,2.299 -0.458,0.983 -0.688,2.113 -0.688,3.391 0,1.246 0.208,2.376 0.623,3.39 0.415,1.015 1.038,1.793 1.869,2.334 0.83,0.54 1.757,0.811 2.785,0.811 0.752,0 1.422,-0.158 2.009,-0.476 0.586,-0.317 1.065,-0.73 1.433,-1.239 v 6.184 h 2.109 v -17.235 z" /><path
         inkscape:connector-curvature="0"
         id="path1129"
         style="fill:#231f20;fill-opacity:1;fill-rule:nonzero;stroke:none"
         d="m 282.728,-14.692 h 2.109 v -12.484 h -2.109 z m 0,4.75 h 2.109 v -2.438 h -2.109 z" /><path
         inkscape:connector-curvature="0"
         id="path1131"
         style="fill:#231f20;fill-opacity:1;fill-rule:nonzero;stroke:none"
         d="m 288.073,-27.177 v 12.485 h 1.89 v -1.775 c 0.916,1.37 2.24,2.056 3.971,2.056 0.751,0 1.442,-0.135 2.073,-0.405 0.63,-0.271 1.102,-0.625 1.415,-1.065 0.314,-0.438 0.533,-0.96 0.659,-1.563 0.078,-0.392 0.117,-1.077 0.117,-2.057 v -7.676 h -2.11 v 7.598 c 0,0.862 -0.082,1.507 -0.247,1.934 -0.164,0.427 -0.455,0.769 -0.874,1.023 -0.419,0.256 -0.91,0.383 -1.473,0.383 -0.901,0 -1.678,-0.286 -2.331,-0.859 -0.654,-0.572 -0.981,-1.658 -0.981,-3.257 v -6.822 z" /><path
         inkscape:connector-curvature="0"
         id="path1133"
         style="fill:#231f20;fill-opacity:1;fill-rule:nonzero;stroke:none"
         d="m 310.043,-21.007 c 0,-1.607 0.326,-2.796 0.975,-3.564 0.649,-0.769 1.436,-1.153 2.359,-1.153 0.939,0 1.744,0.399 2.413,1.194 0.668,0.797 1.003,2.029 1.003,3.699 0,1.592 -0.327,2.783 -0.98,3.576 -0.653,0.791 -1.435,1.188 -2.342,1.188 -0.899,0 -1.696,-0.422 -2.388,-1.265 -0.693,-0.843 -1.04,-2.067 -1.04,-3.675 m -1.906,-10.951 v 17.266 h 1.922 v -1.622 c 0.454,0.633 0.968,1.11 1.539,1.427 0.571,0.318 1.265,0.476 2.08,0.476 1.066,0 2.005,-0.275 2.82,-0.822 0.814,-0.549 1.429,-1.324 1.844,-2.323 0.415,-0.999 0.623,-2.093 0.623,-3.285 0,-1.277 -0.229,-2.427 -0.687,-3.449 -0.458,-1.023 -1.124,-1.807 -1.997,-2.352 -0.874,-0.544 -1.793,-0.816 -2.756,-0.816 -0.705,0 -1.338,0.148 -1.898,0.445 -0.56,0.297 -1.02,0.672 -1.38,1.125 v -6.07 z" /><path
         inkscape:connector-curvature="0"
         id="path1135"
         style="fill:#231f20;fill-opacity:1;fill-rule:nonzero;stroke:none"
         d="m 329.674,-27.177 v 1.841 c -0.968,-1.415 -2.285,-2.122 -3.949,-2.122 -0.734,0 -1.42,0.141 -2.057,0.423 -0.636,0.282 -1.109,0.637 -1.418,1.064 -0.308,0.427 -0.525,0.95 -0.65,1.57 -0.086,0.415 -0.129,1.073 -0.129,1.974 v 7.735 h 2.11 v -6.92 c 0,-1.105 0.043,-1.848 0.128,-2.233 0.133,-0.555 0.415,-0.992 0.845,-1.309 0.43,-0.318 0.961,-0.476 1.595,-0.476 0.633,0 1.227,0.162 1.782,0.487 0.555,0.326 0.947,0.768 1.179,1.328 0.23,0.56 0.346,1.373 0.346,2.438 v 6.685 h 2.108 v -12.485 z" /><path
         inkscape:connector-curvature="0"
         id="path1137"
         style="fill:#231f20;fill-opacity:1;fill-rule:nonzero;stroke:none"
         d="m 336.804,-20.841 c 0,-1.498 0.204,-2.58 0.612,-3.247 0.667,-1.091 1.569,-1.636 2.708,-1.636 0.926,0 1.727,0.403 2.401,1.206 0.675,0.804 1.013,2.002 1.013,3.595 0,1.632 -0.324,2.836 -0.972,3.612 -0.647,0.777 -1.43,1.165 -2.348,1.165 -0.926,0 -1.727,-0.402 -2.402,-1.206 -0.674,-0.803 -1.012,-1.966 -1.012,-3.489 m 0.031,-6.336 h -1.953 v 17.235 h 2.109 v -6.145 c 0.895,1.117 2.035,1.676 3.424,1.676 0.769,0 1.496,-0.154 2.183,-0.465 0.686,-0.309 1.251,-0.744 1.694,-1.305 0.443,-0.559 0.791,-1.235 1.041,-2.027 0.252,-0.791 0.377,-1.638 0.377,-2.539 0,-2.139 -0.529,-3.792 -1.589,-4.96 -1.059,-1.167 -2.331,-1.751 -3.813,-1.751 -1.476,0 -2.633,0.613 -3.473,1.84 z" /><path
         inkscape:connector-curvature="0"
         id="path1139"
         style="fill:#231f20;fill-opacity:1;fill-rule:nonzero;stroke:none"
         d="m 348.231,-9.942 h 2.109 v -17.234 h -2.109 z" /><path
         inkscape:connector-curvature="0"
         id="path1141"
         style="fill:#231f20;fill-opacity:1;fill-rule:nonzero;stroke:none"
         d="m 353.623,-14.692 h 2.109 v -12.484 h -2.109 z m 0,4.75 h 2.109 v -2.438 h -2.109 z" /><path
         inkscape:connector-curvature="0"
         id="path1143"
         style="fill:#231f20;fill-opacity:1;fill-rule:nonzero;stroke:none"
         d="m 367.109,-22.599 2.079,-0.281 c -0.228,-1.432 -0.81,-2.553 -1.747,-3.363 -0.936,-0.811 -2.087,-1.215 -3.45,-1.215 -1.709,0 -3.082,0.559 -4.121,1.675 -1.039,1.116 -1.557,2.717 -1.557,4.802 0,1.347 0.223,2.527 0.669,3.537 0.447,1.011 1.126,1.769 2.039,2.275 0.914,0.505 1.907,0.758 2.98,0.758 1.355,0 2.465,-0.344 3.326,-1.029 0.861,-0.687 1.414,-1.662 1.657,-2.924 l -2.062,-0.313 c -0.196,0.84 -0.542,1.472 -1.04,1.896 -0.497,0.424 -1.098,0.635 -1.803,0.635 -1.065,0 -1.931,-0.382 -2.596,-1.147 -0.666,-0.765 -0.999,-1.975 -0.999,-3.63 0,-1.679 0.322,-2.898 0.965,-3.659 0.644,-0.761 1.483,-1.142 2.519,-1.142 0.831,0 1.525,0.256 2.082,0.767 0.557,0.511 0.91,1.297 1.059,2.358" /><path
         inkscape:connector-curvature="0"
         id="path1145"
         style="fill:#231f20;fill-opacity:1;fill-rule:nonzero;stroke:none"
         d="m 379.073,-20.948 c 0,-1.6 0.337,-2.795 1.01,-3.588 0.674,-0.791 1.469,-1.188 2.385,-1.188 0.924,0 1.709,0.378 2.355,1.135 0.646,0.757 0.969,1.911 0.969,3.464 0,1.71 -0.329,2.964 -0.986,3.765 -0.659,0.798 -1.469,1.199 -2.432,1.199 -0.939,0 -1.725,-0.385 -2.355,-1.152 -0.63,-0.77 -0.946,-1.981 -0.946,-3.635 m 6.688,-6.229 v 1.571 c -0.791,-1.235 -1.955,-1.852 -3.49,-1.852 -0.995,0 -1.91,0.274 -2.744,0.822 -0.834,0.549 -1.48,1.315 -1.938,2.299 -0.459,0.983 -0.688,2.113 -0.688,3.391 0,1.246 0.207,2.376 0.623,3.39 0.415,1.015 1.038,1.793 1.869,2.334 0.83,0.54 1.758,0.811 2.784,0.811 0.752,0 1.422,-0.158 2.01,-0.476 0.587,-0.317 1.065,-0.73 1.433,-1.239 v 6.184 h 2.109 v -17.235 z" /><path
         inkscape:connector-curvature="0"
         id="path1147"
         style="fill:#231f20;fill-opacity:1;fill-rule:nonzero;stroke:none"
         d="m 392.438,-20.937 c 0,-1.599 0.348,-2.796 1.045,-3.593 0.698,-0.795 1.575,-1.194 2.632,-1.194 1.05,0 1.923,0.401 2.62,1.2 0.698,0.8 1.046,2.019 1.046,3.658 0,1.545 -0.35,2.715 -1.052,3.512 -0.701,0.794 -1.572,1.193 -2.614,1.193 -1.057,0 -1.934,-0.397 -2.632,-1.188 -0.697,-0.793 -1.045,-1.988 -1.045,-3.588 m -2.172,0.002 c 0,2.312 0.641,4.024 1.926,5.137 1.073,0.924 2.38,1.387 3.923,1.387 1.715,0 3.116,-0.563 4.205,-1.687 1.089,-1.125 1.633,-2.678 1.633,-4.661 0,-1.605 -0.241,-2.869 -0.723,-3.79 -0.481,-0.921 -1.182,-1.636 -2.102,-2.145 -0.92,-0.509 -1.924,-0.764 -3.013,-0.764 -1.746,0 -3.158,0.561 -4.234,1.681 -1.077,1.12 -1.615,2.735 -1.615,4.842" /><path
         inkscape:connector-curvature="0"
         id="path1149"
         style="fill:#231f20;fill-opacity:1;fill-rule:nonzero;stroke:none"
         d="m 404.436,-27.177 v 12.485 h 1.89 v -1.747 c 0.392,0.609 0.911,1.1 1.561,1.471 0.649,0.371 1.387,0.557 2.217,0.557 0.922,0 1.679,-0.192 2.27,-0.574 0.59,-0.384 1.007,-0.919 1.249,-1.607 0.988,1.454 2.275,2.181 3.859,2.181 1.24,0 2.193,-0.343 2.86,-1.028 0.667,-0.687 1,-1.743 1,-3.168 v -8.57 h -2.11 v 7.868 c 0,0.847 -0.068,1.456 -0.206,1.83 -0.136,0.372 -0.385,0.671 -0.746,0.899 -0.361,0.227 -0.785,0.341 -1.27,0.341 -0.879,0 -1.609,-0.292 -2.189,-0.876 -0.58,-0.585 -0.87,-1.52 -0.87,-2.806 v -7.256 h -2.109 v 8.115 c 0,0.941 -0.172,1.647 -0.517,2.117 -0.345,0.47 -0.908,0.706 -1.691,0.706 -0.595,0 -1.145,-0.157 -1.651,-0.471 -0.504,-0.313 -0.871,-0.772 -1.097,-1.376 -0.227,-0.603 -0.341,-1.474 -0.341,-2.61 v -6.481 z" /><path
         inkscape:connector-curvature="0"
         id="path1151"
         style="fill:#231f20;fill-opacity:1;fill-rule:nonzero;stroke:none"
         d="m 432.438,-20.911 c -0.767,-0.314 -1.918,-0.58 -3.453,-0.799 -0.868,-0.126 -1.482,-0.268 -1.842,-0.424 -0.361,-0.156 -0.638,-0.386 -0.833,-0.687 -0.197,-0.302 -0.294,-0.637 -0.294,-1.006 0,-0.565 0.213,-1.034 0.638,-1.41 0.426,-0.377 1.049,-0.565 1.869,-0.565 0.813,0 1.536,0.178 2.168,0.535 0.633,0.357 1.098,0.844 1.395,1.463 0.227,0.479 0.34,1.184 0.34,2.117 z m 0.171,-4.719 c -0.786,-0.668 -1.541,-1.141 -2.263,-1.415 -0.723,-0.275 -1.498,-0.413 -2.326,-0.413 -1.368,0 -2.418,0.335 -3.153,1.005 -0.734,0.67 -1.101,1.526 -1.101,2.567 0,0.612 0.138,1.17 0.416,1.675 0.277,0.506 0.64,0.911 1.089,1.217 0.45,0.306 0.956,0.536 1.518,0.693 0.414,0.11 1.039,0.216 1.875,0.318 1.703,0.203 2.957,0.446 3.762,0.728 0.008,0.29 0.012,0.475 0.012,0.553 0,0.863 -0.2,1.471 -0.599,1.823 -0.539,0.479 -1.34,0.718 -2.403,0.718 -0.994,0 -1.726,-0.175 -2.199,-0.524 -0.473,-0.348 -0.823,-0.965 -1.049,-1.851 l -2.063,0.281 c 0.188,0.886 0.497,1.601 0.928,2.146 0.43,0.544 1.052,0.963 1.867,1.256 0.814,0.295 1.759,0.442 2.831,0.442 1.064,0 1.93,-0.125 2.596,-0.376 0.665,-0.251 1.154,-0.567 1.467,-0.946 0.314,-0.38 0.533,-0.861 0.659,-1.44 0.07,-0.361 0.105,-1.012 0.105,-1.951 v -2.822 c 0,-1.967 0.045,-3.211 0.136,-3.733 0.09,-0.52 0.268,-1.019 0.536,-1.498 h -2.203 c -0.228,0.442 -0.373,0.957 -0.438,1.547" /><path
         inkscape:connector-curvature="0"
         id="path1153"
         style="fill:#231f20;fill-opacity:1;fill-rule:nonzero;stroke:none"
         d="m 437.865,-14.692 h 2.109 v -12.484 h -2.109 z m 0,4.75 h 2.109 v -2.438 h -2.109 z" /><path
         inkscape:connector-curvature="0"
         id="path1155"
         style="fill:#231f20;fill-opacity:1;fill-rule:nonzero;stroke:none"
         d="m 443.21,-27.177 v 12.485 h 1.891 v -1.775 c 0.916,1.37 2.239,2.056 3.97,2.056 0.752,0 1.443,-0.135 2.074,-0.405 0.629,-0.271 1.101,-0.625 1.415,-1.065 0.313,-0.438 0.532,-0.96 0.658,-1.563 0.078,-0.392 0.117,-1.077 0.117,-2.057 v -7.676 h -2.109 v 7.598 c 0,0.862 -0.082,1.507 -0.247,1.934 -0.165,0.427 -0.457,0.769 -0.875,1.023 -0.418,0.256 -0.91,0.383 -1.473,0.383 -0.901,0 -1.678,-0.286 -2.331,-0.859 -0.654,-0.572 -0.981,-1.658 -0.981,-3.257 v -6.822 z" /><path
         inkscape:connector-curvature="0"
         id="path1157"
         style="fill:#231f20;fill-opacity:1;fill-rule:nonzero;stroke:none"
         d="m 465.181,-20.841 c 0,-1.498 0.204,-2.58 0.612,-3.247 0.667,-1.091 1.569,-1.636 2.708,-1.636 0.926,0 1.727,0.403 2.401,1.206 0.675,0.804 1.013,2.002 1.013,3.595 0,1.632 -0.324,2.836 -0.972,3.612 -0.647,0.777 -1.43,1.165 -2.348,1.165 -0.926,0 -1.727,-0.402 -2.402,-1.206 -0.674,-0.803 -1.012,-1.966 -1.012,-3.489 m 0.031,-6.336 h -1.953 v 17.235 h 2.109 v -6.145 c 0.895,1.117 2.035,1.676 3.424,1.676 0.769,0 1.496,-0.154 2.183,-0.465 0.686,-0.309 1.251,-0.744 1.694,-1.305 0.443,-0.559 0.791,-1.235 1.041,-2.027 0.252,-0.791 0.377,-1.638 0.377,-2.539 0,-2.139 -0.529,-3.792 -1.589,-4.96 -1.06,-1.167 -2.331,-1.751 -3.813,-1.751 -1.476,0 -2.633,0.613 -3.473,1.84 z" /><path
         inkscape:connector-curvature="0"
         id="path1159"
         style="fill:#231f20;fill-opacity:1;fill-rule:nonzero;stroke:none"
         d="m 476.562,-31.979 -0.235,1.99 c 0.461,-0.125 0.864,-0.188 1.208,-0.188 0.47,0 0.845,0.078 1.126,0.235 0.281,0.157 0.513,0.377 0.693,0.658 0.132,0.212 0.347,0.736 0.645,1.574 0.039,0.118 0.102,0.29 0.188,0.518 l -4.75,12.5 h 2.28 l 2.602,-7.198 c 0.338,-0.912 0.64,-1.872 0.908,-2.879 0.244,0.941 0.535,1.873 0.873,2.797 l 2.665,7.28 h 2.114 l -4.733,-12.704 c -0.51,-1.369 -0.906,-2.31 -1.188,-2.827 -0.376,-0.695 -0.807,-1.205 -1.293,-1.53 -0.486,-0.324 -1.066,-0.486 -1.74,-0.486 -0.407,0 -0.862,0.086 -1.363,0.26" /><path
         inkscape:connector-curvature="0"
         id="path1161"
         style="fill:#231f20;fill-opacity:1;fill-rule:nonzero;stroke:none"
         d="m 495.744,-27.177 v 17.235 h 11.625 v -2.032 h -9.344 v -5.343 h 8.094 v -2.032 h -8.094 v -7.828 z" /><path
         inkscape:connector-curvature="0"
         id="path1163"
         style="fill:#231f20;fill-opacity:1;fill-rule:nonzero;stroke:none"
         d="m 510.034,-27.177 v 12.485 h 1.891 v -1.895 c 0.487,0.886 0.936,1.471 1.349,1.752 0.413,0.283 0.866,0.424 1.362,0.424 0.715,0 1.441,-0.228 2.179,-0.682 l -0.74,-1.957 c -0.515,0.301 -1.032,0.451 -1.549,0.451 -0.461,0 -0.875,-0.138 -1.243,-0.417 -0.367,-0.278 -0.63,-0.664 -0.786,-1.158 -0.236,-0.752 -0.353,-1.575 -0.353,-2.468 v -6.535 z" /><path
         inkscape:connector-curvature="0"
         id="path1165"
         style="fill:#231f20;fill-opacity:1;fill-rule:nonzero;stroke:none"
         d="m 519.655,-19.739 h 6.969 c -0.094,1.052 -0.36,1.842 -0.799,2.368 -0.674,0.817 -1.548,1.225 -2.621,1.225 -0.972,0 -1.788,-0.326 -2.45,-0.978 -0.662,-0.651 -1.028,-1.523 -1.099,-2.615 m 6.946,-3.407 2.187,-0.281 c -0.345,-1.277 -0.983,-2.268 -1.915,-2.973 -0.932,-0.705 -2.122,-1.058 -3.571,-1.058 -1.824,0 -3.272,0.562 -4.34,1.687 -1.069,1.124 -1.604,2.701 -1.604,4.731 0,2.1 0.54,3.729 1.621,4.889 1.081,1.16 2.483,1.74 4.206,1.74 1.668,0 3.031,-0.568 4.087,-1.704 1.057,-1.136 1.586,-2.735 1.586,-4.794 0,-0.126 -0.004,-0.315 -0.011,-0.565 h -9.317 c 0.078,-1.373 0.467,-2.425 1.164,-3.155 0.699,-0.729 1.57,-1.095 2.613,-1.095 0.776,0 1.438,0.205 1.988,0.616 0.549,0.41 0.983,1.064 1.306,1.962" /><path
         inkscape:connector-curvature="0"
         id="path1167"
         style="fill:#231f20;fill-opacity:1;fill-rule:nonzero;stroke:none"
         d="m 533.035,-19.739 h 6.969 c -0.095,1.052 -0.36,1.842 -0.799,2.368 -0.674,0.817 -1.548,1.225 -2.621,1.225 -0.972,0 -1.788,-0.326 -2.45,-0.978 -0.662,-0.651 -1.029,-1.523 -1.099,-2.615 m 6.945,-3.407 2.188,-0.281 c -0.345,-1.277 -0.983,-2.268 -1.915,-2.973 -0.932,-0.705 -2.122,-1.058 -3.57,-1.058 -1.826,0 -3.273,0.562 -4.341,1.687 -1.07,1.124 -1.604,2.701 -1.604,4.731 0,2.1 0.54,3.729 1.621,4.889 1.081,1.16 2.483,1.74 4.205,1.74 1.668,0 3.031,-0.568 4.088,-1.704 1.058,-1.136 1.586,-2.735 1.586,-4.794 0,-0.126 -0.004,-0.315 -0.011,-0.565 h -9.317 c 0.078,-1.373 0.467,-2.425 1.165,-3.155 0.697,-0.729 1.569,-1.095 2.612,-1.095 0.776,0 1.439,0.205 1.988,0.616 0.549,0.41 0.984,1.064 1.305,1.962" /><path
         inkscape:connector-curvature="0"
         id="path1169"
         style="fill:#231f20;fill-opacity:1;fill-rule:nonzero;stroke:none"
         d="m 544.338,-21.646 2.156,0.188 c 0.102,-0.864 0.338,-1.574 0.709,-2.128 0.371,-0.554 0.948,-1.002 1.73,-1.344 0.781,-0.341 1.661,-0.512 2.637,-0.512 0.868,0 1.634,0.129 2.298,0.388 0.664,0.26 1.158,0.616 1.484,1.068 0.324,0.451 0.486,0.944 0.486,1.476 0,0.541 -0.156,1.013 -0.468,1.417 -0.311,0.404 -0.828,0.742 -1.549,1.017 -0.462,0.18 -1.484,0.461 -3.066,0.842 -1.583,0.38 -2.692,0.739 -3.328,1.077 -0.824,0.431 -1.438,0.967 -1.842,1.607 -0.404,0.639 -0.606,1.356 -0.606,2.149 0,0.871 0.247,1.685 0.741,2.442 0.493,0.757 1.215,1.332 2.163,1.725 0.948,0.392 2.003,0.588 3.163,0.588 1.278,0 2.404,-0.205 3.381,-0.616 0.976,-0.411 1.726,-1.015 2.252,-1.813 0.525,-0.798 0.807,-1.701 0.846,-2.711 l -2.187,-0.172 c -0.118,1.087 -0.515,1.908 -1.192,2.464 -0.678,0.556 -1.68,0.833 -3.003,0.833 -1.38,0 -2.384,-0.253 -3.015,-0.759 -0.631,-0.507 -0.946,-1.116 -0.946,-1.83 0,-0.62 0.223,-1.13 0.67,-1.53 0.438,-0.401 1.585,-0.811 3.437,-1.23 1.853,-0.42 3.124,-0.786 3.814,-1.099 1.002,-0.462 1.743,-1.048 2.221,-1.757 0.478,-0.709 0.717,-1.526 0.717,-2.449 0,-0.917 -0.263,-1.781 -0.787,-2.591 -0.525,-0.812 -1.277,-1.442 -2.26,-1.892 -0.982,-0.45 -2.089,-0.676 -3.317,-0.676 -1.558,0 -2.864,0.228 -3.916,0.682 -1.053,0.454 -1.879,1.138 -2.478,2.051 -0.598,0.912 -0.914,1.944 -0.945,3.095" /><path
         inkscape:connector-curvature="0"
         id="path1171"
         style="fill:#231f20;fill-opacity:1;fill-rule:nonzero;stroke:none"
         d="m 566.063,-27.177 -6.666,17.235 h 2.472 l 4.478,-12.516 c 0.36,-1.003 0.662,-1.943 0.905,-2.82 0.267,0.939 0.576,1.88 0.929,2.82 l 4.657,12.516 h 2.331 l -6.748,-17.235 z" /><path
         inkscape:connector-curvature="0"
         id="path1173"
         style="fill:#231f20;fill-opacity:1;fill-rule:nonzero;stroke:none"
         d="m 585.26,-20.427 v 2.031 h 7.297 v -6.388 c -1.12,-0.893 -2.277,-1.565 -3.468,-2.014 -1.191,-0.451 -2.413,-0.676 -3.666,-0.676 -1.694,0 -3.231,0.363 -4.613,1.088 -1.384,0.725 -2.428,1.774 -3.133,3.146 -0.705,1.372 -1.058,2.905 -1.058,4.598 0,1.678 0.351,3.244 1.052,4.698 0.701,1.455 1.71,2.535 3.026,3.24 1.317,0.706 2.833,1.058 4.549,1.058 1.245,0 2.372,-0.202 3.379,-0.606 1.007,-0.404 1.796,-0.968 2.368,-1.689 0.572,-0.722 1.007,-1.664 1.305,-2.827 l -2.058,-0.563 c -0.259,0.878 -0.58,1.568 -0.965,2.071 -0.383,0.503 -0.932,0.906 -1.645,1.208 -0.714,0.302 -1.506,0.453 -2.376,0.453 -1.042,0 -1.944,-0.158 -2.704,-0.476 -0.761,-0.317 -1.375,-0.735 -1.841,-1.252 -0.466,-0.517 -0.829,-1.085 -1.088,-1.704 -0.438,-1.066 -0.658,-2.222 -0.658,-3.468 0,-1.536 0.265,-2.821 0.794,-3.855 0.529,-1.036 1.299,-1.803 2.31,-2.305 1.011,-0.501 2.085,-0.752 3.222,-0.752 0.988,0 1.952,0.189 2.894,0.568 0.94,0.38 1.653,0.784 2.139,1.215 v 3.201 z" /><path
         inkscape:connector-curvature="0"
         id="path1175"
         style="fill:#231f20;fill-opacity:1;fill-rule:nonzero;stroke:none"
         d="m 596.239,-24.771 h 2.406 v -2.406 h -2.406 z" /><path
         inkscape:connector-curvature="0"
         id="path1177"
         style="fill:#231f20;fill-opacity:1;fill-rule:nonzero;stroke:none"
         d="m 603.705,-20.937 c 0,-1.599 0.349,-2.796 1.046,-3.593 0.697,-0.795 1.574,-1.194 2.632,-1.194 1.05,0 1.923,0.401 2.62,1.2 0.697,0.8 1.046,2.019 1.046,3.658 0,1.545 -0.351,2.715 -1.052,3.512 -0.701,0.794 -1.572,1.193 -2.614,1.193 -1.058,0 -1.935,-0.397 -2.632,-1.188 -0.697,-0.793 -1.046,-1.988 -1.046,-3.588 m -2.172,0.002 c 0,2.312 0.642,4.024 1.927,5.137 1.072,0.924 2.38,1.387 3.923,1.387 1.715,0 3.116,-0.563 4.205,-1.687 1.089,-1.125 1.633,-2.678 1.633,-4.661 0,-1.605 -0.242,-2.869 -0.723,-3.79 -0.481,-0.921 -1.183,-1.636 -2.102,-2.145 -0.92,-0.509 -1.924,-0.764 -3.013,-0.764 -1.746,0 -3.158,0.561 -4.235,1.681 -1.077,1.12 -1.615,2.735 -1.615,4.842" /><path
         inkscape:connector-curvature="0"
         id="path1179"
         style="fill:#231f20;fill-opacity:1;fill-rule:nonzero;stroke:none"
         d="m 615.679,-27.177 v 12.485 h 1.89 v -1.895 c 0.488,0.886 0.937,1.471 1.35,1.752 0.412,0.283 0.865,0.424 1.361,0.424 0.715,0 1.442,-0.228 2.18,-0.682 l -0.74,-1.957 c -0.516,0.301 -1.032,0.451 -1.549,0.451 -0.461,0 -0.875,-0.138 -1.243,-0.417 -0.367,-0.278 -0.63,-0.664 -0.786,-1.158 -0.237,-0.752 -0.354,-1.575 -0.354,-2.468 v -6.535 z" /><path
         inkscape:connector-curvature="0"
         id="path1181"
         style="fill:#231f20;fill-opacity:1;fill-rule:nonzero;stroke:none"
         d="m 625.077,-20.712 c 0,-1.639 0.325,-2.834 0.975,-3.586 0.649,-0.753 1.463,-1.129 2.441,-1.129 0.971,0 1.784,0.374 2.442,1.123 0.658,0.748 0.986,1.922 0.986,3.522 0,1.528 -0.338,2.68 -1.016,3.457 -0.676,0.775 -1.492,1.164 -2.447,1.164 -0.939,0 -1.737,-0.383 -2.395,-1.147 -0.657,-0.764 -0.986,-1.899 -0.986,-3.404 m -1.75,-7.496 2.063,-0.313 c 0.086,-0.632 0.325,-1.093 0.715,-1.382 0.525,-0.391 1.241,-0.586 2.148,-0.586 0.977,0 1.732,0.196 2.265,0.588 0.531,0.392 0.891,0.941 1.079,1.647 0.109,0.432 0.16,1.337 0.152,2.718 -0.924,-1.094 -2.074,-1.641 -3.453,-1.641 -1.715,0 -3.042,0.619 -3.982,1.858 -0.939,1.238 -1.409,2.722 -1.409,4.455 0,1.191 0.216,2.29 0.647,3.297 0.43,1.006 1.055,1.785 1.874,2.333 0.818,0.548 1.78,0.823 2.884,0.823 1.472,0 2.687,-0.594 3.642,-1.781 v 1.5 h 1.953 v -10.789 c 0,-1.944 -0.197,-3.321 -0.593,-4.131 -0.396,-0.811 -1.023,-1.451 -1.88,-1.922 -0.859,-0.47 -1.914,-0.705 -3.168,-0.705 -1.489,0 -2.692,0.335 -3.609,1.005 -0.917,0.67 -1.359,1.678 -1.328,3.026" /></g><g
       id="g1872"><path
         inkscape:connector-curvature="0"
         id="path1183"
         style="fill:#000000;fill-opacity:1;fill-rule:nonzero;stroke:none"
         d="m 308.208,435.846 c 1.107,1.402 1.702,3.071 2.42,4.683 0.34,0.82 0.7,1.633 1.098,2.45 0.203,0.408 0.428,0.809 0.703,1.206 0.3,0.373 0.559,0.842 1.292,1.056 0.382,0.088 0.787,-0.069 1.025,-0.26 0.269,-0.206 0.361,-0.369 0.546,-0.557 0.298,-0.379 0.569,-0.772 0.782,-1.184 0.43,-0.823 0.77,-1.661 1.065,-2.503 0.616,-1.67 1.099,-3.357 2.023,-4.891 -1.25,1.3 -2.03,2.99 -2.758,4.591 -0.378,0.799 -0.726,1.605 -1.167,2.329 -0.214,0.367 -0.448,0.707 -0.706,1.021 -0.128,0.125 -0.292,0.334 -0.386,0.389 -0.113,0.074 -0.159,0.08 -0.218,0.07 -0.151,-0.011 -0.468,-0.32 -0.69,-0.637 -0.24,-0.327 -0.448,-0.703 -0.661,-1.079 -0.429,-0.754 -0.807,-1.557 -1.233,-2.34 -0.835,-1.556 -1.728,-3.203 -3.135,-4.344 m 13,-14.76 c 2.192,-3.215 0.898,-5.07 0.898,-5.07 0,0 -3.09,-2.53 -3.529,-1.8 -0.438,0.731 -3.47,8.623 -4,6.285 -0.53,-2.339 -1.121,-5.42 -1.706,-5.68 -0.584,-0.259 -4.06,1.401 -4.06,1.401 -0.154,2.192 1.436,10.243 3.189,13.326 1.755,3.084 0.185,7.468 2.577,3.959 2.393,-3.507 4.439,-9.207 6.631,-12.421 m 26.419,11.983 c -1.788,-4.968 -8.297,-3.361 -13.736,-2.923 -5.439,0.439 -5.668,1.9 -9.322,6.87 -3.653,4.969 -1.858,12.459 -1.607,13.298 1.607,5.408 18.706,3.217 21.923,1.317 3.215,-1.901 4.529,-13.592 2.742,-18.562 m -25.232,22.906 c -1.029,-0.455 -2.074,-1.012 -3.233,-1.129 0.991,0.535 1.822,1.28 2.706,1.97 0.882,0.69 1.756,1.393 2.657,2.062 0.89,0.691 1.823,1.32 2.76,1.966 0.473,0.32 0.969,0.61 1.473,0.904 0.531,0.287 0.993,0.576 1.745,0.81 0.808,0.194 1.368,0.113 1.952,0.111 0.581,-0.022 1.148,-0.052 1.714,-0.106 1.129,-0.123 2.249,-0.234 3.362,-0.422 2.229,-0.343 4.442,-0.785 6.622,-1.449 -2.272,-0.178 -4.521,-0.176 -6.758,-0.131 -1.12,-10e-4 -2.231,0.072 -3.34,0.08 l -1.644,0.042 c -0.53,0.002 -1.113,0.008 -1.39,-0.091 -0.324,-0.08 -0.85,-0.342 -1.305,-0.582 l -1.424,-0.801 c -0.967,-0.533 -1.914,-1.124 -2.903,-1.655 -0.975,-0.554 -1.976,-1.079 -2.994,-1.579 m -7.818,-6.976 c -0.403,1.95 -0.493,3.897 -0.508,5.847 0.017,1.948 0.107,3.898 0.508,5.846 0.401,-1.948 0.491,-3.898 0.507,-5.846 -0.014,-1.95 -0.104,-3.897 -0.507,-5.847 m -24.042,11.779 -7.618,0.06 c 2.451,0.787 4.99,1.254 7.547,1.519 2.56,0.271 5.148,0.313 7.743,0.091 2.574,-0.297 5.234,-0.689 7.64,-2.184 1.177,-0.799 2.067,-1.743 2.853,-2.845 0.372,-0.552 0.689,-1.138 0.965,-1.702 0.143,-0.277 0.281,-0.546 0.482,-0.737 0.194,-0.201 0.507,-0.28 0.831,-0.28 -0.298,-0.096 -0.664,-0.144 -1.001,0.024 -0.326,0.17 -0.556,0.435 -0.777,0.674 -0.429,0.491 -0.818,0.965 -1.268,1.382 -0.433,0.427 -0.893,0.822 -1.39,1.17 -0.486,0.354 -1.007,0.714 -1.498,0.946 -2.074,0.961 -4.582,1.295 -7.026,1.529 -2.464,0.251 -4.97,0.297 -7.483,0.353 m 16.541,-20.057 c -0.147,-1.753 -4.531,-7.161 -6.138,-8.476 -1.608,-1.316 -12.862,-5.116 -17.978,-2.486 -5.114,2.632 -2.977,17.539 0.53,20.755 3.508,3.215 17.587,2.702 18.465,2.409 0.877,-0.291 5.267,-10.448 5.121,-12.202 m 157.261,-6.539 c -59.812,26.915 -36.844,43.749 -101.252,29.108 31.15,16.199 48.91,15.587 66.233,1.807 17.325,-13.78 45.616,-42.931 116.963,-39.719 0,0 -37.01,-11.419 -81.944,8.804 m -12.179,-89.984 c -4.646,0 -8.416,3.766 -8.416,8.415 0,4.648 3.77,8.416 8.416,8.416 4.649,0 8.416,-3.768 8.416,-8.416 0,-4.649 -3.767,-8.415 -8.416,-8.415 M 235.103,309.452 c -32.889,7.704 -69.689,-9.253 -89.782,-12.156 64.741,27.46 75.577,33.81 119.869,9.007 44.291,-24.804 89.506,-28.614 103.437,-23.182 -39.52,-21.605 -76.379,12.944 -133.524,26.331 M 101.034,234.151 C 85.091,360.304 66.683,510.381 56.57,593.21 c 18.947,-21.127 33.531,-57.383 43.294,-95.258 1.371,-5.321 26.576,-16.636 65.405,-15.256 1.11,-5.026 -60.383,-5.827 -59.445,-10.813 9.515,-50.591 11.089,-102.45 1.745,-113.07 -19.489,-22.146 82.6,28.068 80.611,-7.972 -22.146,20.375 -82.138,-3.335 -85.682,-29.024 15.241,-25.449 3.811,-70.431 -1.464,-87.666 m 53.484,317.332 c 4.158,0 7.53,-3.371 7.53,-7.53 0,-4.159 -3.372,-7.529 -7.53,-7.529 -4.158,0 -7.53,3.37 -7.53,7.529 0,4.159 3.372,7.53 7.53,7.53 m 14.223,-138.234 c 0,-3.696 -2.997,-6.693 -6.693,-6.693 -3.697,0 -6.694,2.997 -6.694,6.693 0,3.697 2.997,6.693 6.694,6.693 3.696,0 6.693,-2.996 6.693,-6.693 m 151.382,-17.478 c -0.029,-0.255 -0.147,-0.45 -0.361,-0.598 -0.818,-0.569 -2.789,-0.291 -3.742,-0.084 l 1.312,5.689 c 0.115,0.305 0.255,0.484 0.398,0.508 0.123,0.018 0.411,-0.046 0.941,-0.711 0.295,-0.371 1.662,-2.902 1.452,-4.804 m 4.282,2.025 c 0.216,-0.587 0.329,-0.891 0.403,-1.058 -0.542,-0.34 -3.017,-1.043 -3.652,-0.62 -0.365,0.244 0.272,2.981 1.371,5.929 0.519,-0.559 1.491,-3.201 1.878,-4.251 m 4.134,0.006 c 0.036,-0.179 0.065,-0.32 0.087,-0.411 -0.33,-0.262 -2.044,-0.585 -2.435,-0.394 -0.386,0.404 -0.39,4.629 -0.013,5.175 0.206,0.067 0.397,0.048 0.582,-0.054 1.013,-0.564 1.569,-3.29 1.779,-4.316 m -30.904,3.472 c -0.243,-0.262 -0.251,-0.785 -0.237,-1.615 0.008,-0.396 0.019,-1.056 -0.025,-1.156 -0.004,0.001 -0.127,0.023 -0.451,0.392 -1.327,1.519 -0.656,3.127 -0.557,3.342 0.091,0.11 0.203,0.15 0.352,0.128 0.344,-0.054 0.792,-0.458 0.921,-0.831 0.024,-0.071 0.056,-0.197 -0.003,-0.26 m 4.133,-3.704 c -0.456,-0.126 -2.675,0.404 -3.134,1.21 -0.325,0.569 0.71,2.506 1.63,3.843 0.969,-1.129 1.591,-4.442 1.504,-5.053 m 8.336,-1.48 c -0.635,-0.424 -3.11,0.281 -3.651,0.62 0.073,0.166 0.185,0.471 0.401,1.058 0.386,1.048 1.358,3.69 1.878,4.252 1.099,-2.95 1.736,-5.687 1.372,-5.93 m 5.291,-1.372 c -0.991,-0.196 -3.041,-0.44 -3.875,0.153 -0.214,0.15 -0.331,0.344 -0.359,0.594 -0.216,1.95 0.823,5.066 1.121,5.439 0.173,0.217 0.576,0.484 0.933,0.484 0.035,0 0.071,-0.002 0.105,-0.009 0.261,-0.041 0.466,-0.254 0.607,-0.631 z m 17.231,4.09 c -0.461,-0.806 -2.671,-1.338 -3.135,-1.209 -0.087,0.609 0.534,3.921 1.504,5.051 0.921,-1.337 1.956,-3.272 1.631,-3.842 m 1.71,0.115 c -0.26,-0.298 -0.391,-0.369 -0.403,-0.398 -0.09,0.153 -0.079,0.781 -0.073,1.163 0.016,0.83 0.007,1.353 -0.236,1.614 -0.06,0.063 -0.027,0.191 -0.003,0.261 0.13,0.372 0.577,0.776 0.922,0.83 0.026,0.005 0.052,0.007 0.077,0.007 0.11,0 0.199,-0.044 0.274,-0.134 0.099,-0.215 0.771,-1.824 -0.558,-3.343 m -6.818,-5.677 c -0.272,-0.304 -0.467,-0.407 -0.57,-0.393 -0.029,0.003 -0.115,0.011 -0.215,0.147 -0.35,0.471 -0.393,1.765 -0.27,2.415 0.041,0.21 0.386,0.49 0.879,0.71 0.489,0.22 0.921,0.297 1.151,0.297 0.059,0 0.104,-0.005 0.133,-0.014 0.181,-0.929 -0.433,-2.402 -1.108,-3.162 m 2.104,3.035 c -0.048,0.274 0.387,0.452 0.576,0.517 0.323,0.108 0.649,0.149 0.924,0.149 0.381,0 0.665,-0.077 0.704,-0.151 0,0 0,-0.005 -0.002,-0.013 -0.053,-0.195 -0.095,-0.372 -0.132,-0.537 -0.166,-0.716 -0.25,-1.077 -1.03,-1.57 -0.196,-0.125 -0.35,-0.164 -0.459,-0.117 -0.312,0.139 -0.454,0.975 -0.558,1.586 z M 325.36,395.4 c -0.97,-2.93 -1.581,-3.797 -1.749,-3.849 -0.337,0.153 -0.618,2.342 -0.604,2.907 0.118,0.682 0.837,1.029 1.42,1.12 0.449,0.068 0.804,-0.007 0.95,-0.133 -0.005,-0.015 -0.012,-0.029 -0.017,-0.045 m -4.025,-0.396 c 0.025,0.002 0.047,0.002 0.07,0.002 0.339,0 0.414,-0.179 0.441,-0.281 -0.068,-0.409 -0.862,-2.834 -1.462,-3.31 -0.079,-0.065 -0.108,-0.047 -0.135,-0.033 -0.345,0.183 -0.702,1.491 -0.638,2.331 0.042,0.532 0.993,1.244 1.724,1.291 m -16.246,1.978 c -0.413,-0.206 -2.125,0.12 -2.458,0.38 0.023,0.091 0.054,0.233 0.089,0.413 0.211,1.026 0.767,3.75 1.78,4.314 0.184,0.103 0.377,0.121 0.581,0.055 0.377,-0.547 0.374,-4.771 0.008,-5.162 m -0.551,-1.312 c 0.154,0.117 0.514,0.173 0.957,0.077 0.576,-0.125 1.273,-0.514 1.352,-1.202 -0.018,-0.564 -0.427,-2.732 -0.754,-2.866 -0.185,0.061 -0.745,0.964 -1.541,3.946 -0.004,0.015 -0.008,0.03 -0.014,0.045 m -1.497,-2.362 c -0.108,-0.129 -0.194,-0.133 -0.222,-0.134 -0.103,0.008 -0.292,0.103 -0.545,0.425 -0.632,0.798 -1.157,2.304 -0.924,3.222 0.148,0.036 0.671,-0.047 1.265,-0.357 0.48,-0.249 0.808,-0.547 0.835,-0.762 0.087,-0.655 -0.032,-1.945 -0.409,-2.394 m -4.761,3.531 c -0.028,0.165 -0.058,0.346 -0.1,0.543 l -0.253,-0.054 0.25,0.061 c 0.077,0.13 0.876,0.216 1.627,-0.088 0.185,-0.074 0.609,-0.279 0.545,-0.549 l -0.03,-0.135 c -0.141,-0.603 -0.332,-1.429 -0.651,-1.55 -0.109,-0.042 -0.26,0.009 -0.45,0.144 -0.751,0.538 -0.815,0.903 -0.938,1.628 m 10.267,-1.846 c 0.728,-0.09 1.634,-0.856 1.644,-1.388 0.017,-0.844 -0.416,-2.127 -0.772,-2.291 -0.025,-0.011 -0.057,-0.027 -0.133,0.04 -0.569,0.511 -1.223,2.978 -1.265,3.391 0.035,0.106 0.134,0.298 0.526,0.248 m 2.899,-1.24 c -0.008,0.031 -0.016,0.071 -0.002,0.086 0.068,0.066 0.23,0.096 0.457,0.096 0.552,0 1.487,-0.177 2.351,-0.425 l -0.979,-3.115 c -0.102,-0.084 -0.367,-0.27 -0.593,-0.144 -0.249,0.192 -0.835,1.964 -1.233,3.497 z m 6.923,0.182 -0.002,-0.004 c -0.487,-1.507 -1.174,-3.243 -1.428,-3.416 -0.237,-0.112 -0.495,0.085 -0.59,0.174 l -0.796,3.167 c 1.235,0.277 2.599,0.408 2.822,0.165 0.014,-0.016 0.005,-0.055 -0.006,-0.086 m 30.404,-0.18 c 1.339,-4.521 -5.328,-10.234 -11.21,-15.276 -3.856,-3.304 -7.498,-6.425 -8.675,-9.014 -1.331,-2.924 -4.22,-2.472 -9.635,-1.343 -2.91,0.605 -6.296,1.311 -9.97,1.311 -1.651,0 -3.359,-0.143 -5.108,-0.501 -2.326,7.392 -8.96,12.03 -14.311,15.771 -1.949,1.362 -3.789,2.649 -5.137,3.881 -2.122,1.941 -1.914,4.974 -1.651,8.816 0.319,4.657 0.715,10.432 -3.159,16.376 0.119,0.134 0.229,0.261 0.331,0.38 0.249,0.291 0.589,0.689 0.712,0.707 0.062,-0.007 0.326,-0.125 1.082,-1.315 0.695,-1.094 1.24,-3.109 1.722,-4.888 0.663,-2.447 1.042,-3.74 1.732,-4.094 0.212,-0.109 0.452,-0.124 0.672,-0.042 0.915,0.344 0.56,1.742 -0.03,4.058 -0.409,1.608 -1.029,4.041 -0.569,4.623 0.024,0.03 0.04,0.08 0.237,0.082 1.799,-0.031 3.565,-0.176 4.295,-1.004 0.294,-0.335 0.406,-0.784 0.341,-1.37 -0.041,-0.363 -0.131,-0.792 -0.235,-1.289 -0.659,-3.142 -1.884,-8.987 4.213,-18.525 3.285,-5.137 4.523,-5.922 5.37,-5.527 1.263,0.588 0.43,4.581 -0.656,8.269 3.193,-1.708 12.596,-6.1 22.302,-4.542 7.195,1.154 10.402,2.955 11.83,4.284 -0.072,-0.418 -0.157,-0.862 -0.235,-1.272 -0.64,-3.366 -1.013,-5.824 0.005,-6.809 0.252,-0.244 0.707,-0.501 1.446,-0.333 3.794,0.859 6.817,16.891 6.68,19.249 -0.04,0.702 -0.01,1.673 0.023,2.701 0.084,2.673 0.188,5.998 -0.82,7.789 -0.031,0.059 -0.135,0.255 -0.078,0.322 0.302,0.353 2.052,0.414 3.639,-0.17 0.911,-0.335 1.241,-0.714 1.241,-0.886 l 0.005,-0.282 c 0.011,-0.424 0.03,-1.305 -0.003,-1.663 -1.203,-13.315 -0.661,-13.421 -0.136,-13.522 0.582,-0.116 0.793,0.579 0.931,1.038 0.63,2.075 0.978,5.182 1.288,7.925 0.237,2.107 0.555,4.931 0.933,5.681 0.816,-0.709 1.628,-0.561 2.221,-0.277 -0.969,-3.158 -3.718,-12.278 -1.633,-19.319 m 8.905,57.31 c -0.205,-2.124 -0.381,-3.937 -0.5,-5.299 -0.741,2.091 -1.437,4.214 -1.437,4.659 0,1.086 -0.802,5.232 -2.356,8.342 -1.089,2.177 -1.137,5.83 -1.178,8.766 -0.014,1.04 -0.027,2.022 -0.084,2.84 -0.101,1.437 0.024,2.666 0.146,3.856 0.231,2.277 0.47,4.629 -0.91,8.275 -1.959,5.18 -2.433,5.008 -2.859,4.859 -0.476,-0.172 -0.709,-0.445 0.426,-3.748 1.575,-4.583 0.539,-9.504 -0.018,-12.148 -0.617,-2.936 0.81,-13.713 3.995,-19.785 0.534,-1.015 0.498,-2.259 0.443,-4.321 -0.049,-1.775 -0.11,-3.986 0.157,-7.059 l 0.024,-0.279 0.247,-0.132 c 3.345,-1.785 7.071,-5.01 7.071,-6.785 0,-1.996 -1.434,-14.072 -3.98,-16.463 -0.257,-0.244 -0.497,-0.353 -0.732,-0.34 -3.39,0.213 -13.792,1.928 -17.459,2.73 -0.97,0.214 -1.887,-0.029 -2.651,-0.701 -0.794,-0.7 -1.419,-1.853 -1.866,-3.374 -0.347,0.616 -0.72,1.215 -1.12,1.791 -0.675,0.94 -1.396,1.835 -2.14,2.7 l -1.101,1.3 c -0.343,0.442 -0.747,0.857 -0.894,1.417 -0.074,-0.606 0.242,-1.164 0.477,-1.687 0.27,-0.521 0.568,-1.021 0.883,-1.502 0.621,-0.971 1.303,-1.885 1.947,-2.815 0.576,-0.804 1.127,-1.615 1.648,-2.44 -0.494,-2.397 -0.623,-5.473 -0.336,-9.004 -0.879,-0.365 -3.391,-1.357 -6.479,-2.172 -0.01,0.007 -0.02,0.017 -0.029,0.024 -0.332,0.185 -0.686,0.209 -1.048,0.076 h -10e-4 c -0.081,-0.03 -0.208,-0.089 -0.325,-0.447 -0.754,-0.173 -1.53,-0.325 -2.319,-0.456 -0.353,0.646 -0.632,0.919 -0.901,0.919 -0.03,0 -0.059,-0.003 -0.088,-0.009 l -0.139,-0.029 -0.05,-0.133 c -0.104,-0.272 -0.227,-0.604 -0.356,-0.965 -1.05,-0.122 -2.097,-0.185 -3.122,-0.17 -0.293,0.284 -0.643,0.507 -1.017,0.439 -0.204,-0.033 -0.379,-0.155 -0.529,-0.348 -1.071,0.113 -2.097,0.323 -3.027,0.682 -3.451,1.338 -6.348,1.677 -8.922,1.677 -1.385,0 -2.676,-0.098 -3.91,-0.192 -1.34,-0.102 -2.614,-0.197 -3.857,-0.156 l -0.06,0.445 c -0.571,4.246 -0.872,6.247 -2.232,7.748 -0.008,0.071 -0.015,0.151 -0.024,0.222 -0.209,1.264 -0.125,2.422 0.597,3.33 0.163,0.221 0.385,0.433 0.615,0.688 l 0.66,0.738 c 0.436,0.494 0.838,1.017 1.235,1.539 0.392,0.528 0.771,1.061 1.131,1.603 0.182,0.269 0.364,0.538 0.563,0.79 0.205,0.228 0.393,0.54 0.728,0.559 -0.346,0.074 -0.652,-0.201 -0.896,-0.397 -0.256,-0.218 -0.49,-0.449 -0.724,-0.68 -0.467,-0.463 -0.902,-0.945 -1.351,-1.413 l -1.344,-1.394 c -0.458,-0.487 -0.902,-0.835 -1.396,-1.42 -0.471,-0.558 -0.781,-1.286 -0.853,-2.019 -0.056,-0.426 -0.026,-0.839 0.034,-1.24 -1.234,0.898 -3.044,1.737 -5.838,3.007 -4.977,2.262 -9.059,1.074 -12.04,0.207 -1.847,-0.539 -3.181,-0.927 -3.911,-0.288 -2,1.751 -8.109,11.319 -3.885,16.53 4.6,5.671 8.736,13.565 9.033,17.237 0.084,1.038 0.402,2.195 0.767,3.536 0.862,3.15 2.041,7.466 0.872,13.627 -1.606,8.466 -2.09,11.022 -1.966,15.049 l 0.025,0.802 -0.741,-0.308 c -1.319,-0.551 -1.232,-4.24 -0.717,-12.529 0.194,-3.132 0.377,-6.089 0.273,-7.753 -0.277,-4.428 -2.342,-12.378 -3.65,-14.319 -1.358,2.98 -4.441,24.838 -0.234,35.657 4.875,12.535 16.529,22.714 29,25.329 13.983,2.931 27.345,0.832 38.646,-6.072 11.682,-7.141 19.049,-23.758 19.484,-28.978 0.287,-3.46 -0.804,-14.753 -1.525,-22.226 m -7.904,86.299 c -0.401,-1.951 -1.524,-5.247 -4.683,-8.141 -5.265,-4.826 -13.946,-6.756 -25.782,-5.742 -7.188,0.617 -14.213,1.484 -21.008,2.323 -22.922,2.826 -42.717,5.27 -58.873,-2.612 -6.597,-3.219 -11.186,-1.419 -17.538,1.07 -5.443,2.136 -12.042,4.724 -22.003,4.724 -7.085,0 -15.871,-1.309 -27.151,-5.023 11.109,9.109 17.913,9.062 32.258,8.954 11.887,-0.091 28.154,-0.206 55.807,4.495 50.307,-14.597 72.811,-11.022 82.831,-5.449 3.473,1.931 5.257,4.009 6.142,5.401 M 304.072,333.953 c -14.421,-8.116 -4.887,-21.934 -8.32,-23.505 0,0 -7.988,-4.266 -13.016,-1.211 -1.597,0.97 -3.968,3.968 -4.239,6.27 -0.271,2.303 2.583,5.847 3.742,5.786 3.345,-0.175 6.387,-4.594 6.387,-4.594 0,0 -0.975,4.321 -2.289,5.567 -1.314,1.246 -14.993,2.436 -15.263,4.739 -0.272,2.301 -0.624,5.295 -0.705,5.986 -0.082,0.691 3.669,6.501 8.464,5.432 4.793,-1.071 6.12,-3.657 9.77,-1.943 l 19.653,7.973 c 1.869,-1.228 4.531,-2.971 7.147,-4.664 -8.338,-2.466 -16.29,-4.922 -20.781,-6.599 -3.343,-1.246 -8.264,-2.587 -9.005,-3.073 z m 51.54,18.076 c 1.842,-7.718 0.618,3.822 2.64,4.338 4.25,1.084 4.851,-0.304 7.627,-2.078 2.777,-1.773 1.937,-6.541 1.058,-8.979 -0.881,-2.438 -5.783,-4.416 -9.427,-3.211 -3.643,1.205 -9.955,7.232 -11.282,6.609 -0.456,-0.215 -8.003,-2.324 -17.387,-5.014 l 16.624,-8.844 c 0,0 11.343,7.952 14.623,4.84 1.295,-1.228 4.626,-6.285 4.71,-9.233 0.082,-2.95 -4.815,-8.032 -4.815,-8.032 0,0 -8.011,5.638 -12.753,-0.727 -4.739,-6.365 3.33,1.978 5.023,0.757 3.557,-2.563 2.877,-3.916 3.298,-7.184 0.421,-3.267 -3.776,-5.682 -6.209,-6.571 -2.436,-0.887 -7.098,1.603 -8.511,5.171 -1.412,3.568 -0.839,12.275 -2.169,12.894 -0.556,0.259 -10.035,6.798 -20.501,13.837 -0.022,-0.008 -0.045,-0.014 -0.068,-0.02 l -7.293,4.902 0.033,0.014 c -0.946,0.626 -1.879,1.242 -2.804,1.852 l -1.091,0.732 -0.007,-0.012 c -5.304,3.476 -10.106,6.528 -13.277,8.33 -3.102,1.764 -7.287,4.68 -8.134,4.936 l 14.782,-11.697 c -15.478,5.856 -19.96,-10.323 -23.368,-8.696 0,0 -8.399,3.39 -9.28,9.208 -0.28,1.849 0.497,5.589 2.091,7.275 1.591,1.685 6.142,1.768 6.839,0.842 2.013,-2.681 0.573,-7.848 0.573,-7.848 0,0 2.689,3.52 2.802,5.327 0.113,1.807 -7.749,13.064 -6.157,14.749 1.593,1.685 3.662,3.875 4.14,4.38 0.478,0.506 7.342,1.356 9.597,-3.008 2.255,-4.365 1.122,-7.04 4.777,-8.742 l 26.81,-14.264 25.265,10.25 c 0,0 1.175,13.802 5.666,14.323 1.773,0.205 7.79,-0.484 10.105,-2.312 2.317,-1.828 3.074,-8.846 3.074,-8.846 0,0 -9.467,-2.528 -7.624,-10.248 m 135.523,123.715 c 4.403,0 7.972,-3.57 7.972,-7.972 0,-4.403 -3.569,-7.973 -7.972,-7.973 -4.403,0 -7.972,3.57 -7.972,7.973 0,4.402 3.569,7.972 7.972,7.972 M 612.75,421.468 c -29.53,-3.544 -72.642,2.952 -66.146,20.67 6.497,17.717 30.121,18.898 48.428,4.724 -8.267,17.127 -82.682,42.523 -127.565,47.838 -44.886,5.316 -54.392,32.565 -41.934,32.482 14.814,-0.099 20.502,-28.8 58.666,-12.993 -16.537,-1.181 -38.584,14.174 -75.595,44.492 -37.01,30.316 -71.658,5.117 -114.967,5.117 -43.31,0 -57.208,13.556 -77.171,11.418 -21.815,-2.336 -22.836,-11.418 -22.836,-11.418 0,0 -10.562,8.019 10.899,17.5 -72.053,2.288 -57.612,38.739 -149.378,23.535 -3.779,30.984 -6.096,50.081 -6.218,51.092 L 37.8,655.341 C 38.475,649.772 98.119,95.98 110.43,22.465 l 18.362,3.074 c -4.203,25.09 -14.846,106.556 -27.043,202.967 30.786,14.32 98.03,61.352 165.355,47.679 42.534,-8.639 121.041,-58.258 134.286,-55.681 0,0 -24.835,24.654 -3.191,27.84 22.842,3.361 16.268,-18.929 17.154,-23.358 0.885,-4.428 16.432,-7.019 16.432,-7.019 0,0 107.439,20.912 140.214,35.971 -26.772,1.181 -84.75,-2.169 -110.756,10.237 -40.103,19.133 -4.655,12.256 -4.655,12.256 0,0 60.236,-6.201 77.067,0 -9.789,13.041 42.478,22.49 17.674,23.376 -24.804,0.885 -120.431,15.6 -106.257,19.223 14.173,3.623 105.076,-5.344 135.196,-10.069 -16.582,11.007 -18.308,17.127 -32.188,26.576 -27.167,-3.543 -42.299,1.135 -37.573,12.357 4.723,11.22 46.367,1.467 43.095,4.719 -10.343,10.278 14.854,16.791 14.854,16.791 0,0 -39.569,8.36 -47.082,8.95 -7.512,0.591 -87.572,14.175 -37.372,19.522 50.199,5.348 96.856,-31.924 91.541,-11.253 -5.315,20.67 66.736,38.388 37.207,34.845" /></g></g></svg>